<?xml version="1.0" standalone="no"?>
<!DOCTYPE svg PUBLIC "-//W3C//DTD SVG 20010904//EN"
 "http://www.w3.org/TR/2001/REC-SVG-20010904/DTD/svg10.dtd">
<svg version="1.0" xmlns="http://www.w3.org/2000/svg"
 width="1000.000000pt" height="1000.000000pt" viewBox="0 0 1000.000000 1000.000000"
 preserveAspectRatio="xMidYMid meet">
<metadata>
Created by potrace 1.11, written by Peter Selinger 2001-2013
</metadata>
<g transform="translate(0.000000,1000.000000) scale(0.100000,-0.100000)"
fill="#000000" stroke="none">
<path d="M2849 9996 c-2 -2 -42 -7 -89 -10 -47 -4 -92 -9 -100 -11 -8 -2 -33
-6 -55 -10 -557 -81 -1110 -336 -1545 -713 -101 -88 -258 -248 -342 -349 -126
-151 -235 -307 -318 -453 -111 -198 -216 -448 -280 -669 -23 -79 -43 -153 -45
-165 -3 -19 -17 -91 -30 -156 -3 -14 -13 -77 -23 -140 -16 -106 -17 -283 -17
-2310 0 -1207 3 -2222 8 -2255 4 -33 9 -71 11 -85 3 -14 7 -47 11 -74 3 -27 8
-52 10 -56 2 -4 7 -29 11 -56 3 -27 19 -101 36 -164 161 -636 523 -1207 1028
-1621 445 -366 1015 -613 1555 -675 33 -3 69 -9 80 -13 11 -3 1003 -6 2205 -7
2199 -2 2226 -2 2440 31 37 5 123 22 257 51 81 17 285 82 406 130 252 100 530
257 735 416 222 172 383 337 606 618 30 39 120 174 171 259 119 197 280 573
311 725 2 10 10 42 18 70 32 109 70 329 84 476 10 102 9 4346 -1 4440 -4 41
-9 91 -12 110 -3 19 -7 52 -10 73 -3 21 -7 48 -10 60 -3 12 -7 33 -9 47 -12
68 -26 132 -30 139 -3 4 -8 22 -11 39 -3 17 -21 83 -40 146 -121 401 -342 795
-630 1126 -74 85 -273 276 -362 347 -54 43 -102 82 -108 86 -26 22 -196 136
-240 162 -27 16 -63 37 -80 47 -66 39 -296 149 -390 186 -144 57 -382 128
-495 148 -14 3 -56 11 -95 19 -38 7 -99 16 -135 20 -36 4 -78 10 -95 13 -32 7
-4379 15 -4386 8z"/>
</g>
</svg>
